<svg xmlns="http://www.w3.org/2000/svg" width="30" height="30" viewBox="0 0 30 30">
  <g id="api_black_24dp_1_" data-name="api_black_24dp (1)" opacity="0.7">
    <rect id="Rectangle_3526" data-name="Rectangle 3526" width="30" height="30" fill="none"/>
    <path id="Path_1159" data-name="Path 1159" d="M17.545,15,15,17.545,12.455,15,15,12.455ZM15,7.364l2.7,2.7L20.88,6.88,15,1,9.12,6.88,12.3,10.062ZM7.364,15l2.7-2.7L6.88,9.12,1,15l5.88,5.88L10.062,17.7Zm15.273,0-2.7,2.7L23.12,20.88,29,15,23.12,9.12,19.938,12.3ZM15,22.636l-2.7-2.7L9.12,23.12,15,29l5.88-5.88L17.7,19.938Z"/>
  </g>
</svg>
