<svg xmlns="http://www.w3.org/2000/svg" width="30" height="30" viewBox="0 0 30 30">
  <g id="design_services_black_24dp" opacity="0.7">
    <g id="Group_1773" data-name="Group 1773">
      <rect id="Rectangle_3523" data-name="Rectangle 3523" width="30" height="30" fill="none"/>
    </g>
    <g id="Group_1775" data-name="Group 1775" transform="translate(3 2.738)">
      <g id="Group_1774" data-name="Group 1774">
        <path id="Path_1155" data-name="Path 1155" d="M26.874,8.759a1.323,1.323,0,0,0,0-1.873l-3.76-3.76a1.323,1.323,0,0,0-1.873,0L15.276,9.091,10.108,3.923a2.662,2.662,0,0,0-3.76,0L3.824,6.447a2.662,2.662,0,0,0,0,3.76l5.168,5.168L3,21.367V27H8.633l6.005-6.005,5.168,5.168a2.66,2.66,0,0,0,3.76,0l2.524-2.524a2.662,2.662,0,0,0,0-3.76l-5.168-5.168ZM5.71,8.321,8.221,5.8h0L9.908,7.484,8.341,9.065l1.873,1.873,1.581-1.581,1.594,1.594-2.524,2.524Zm14.92,9.884-1.581,1.581,1.873,1.873L22.5,20.078l1.687,1.687L21.666,24.29,16.5,19.122,19.022,16.6ZM7.53,24.343H5.657V22.47L18.424,9.7l1.727,1.727.146.146ZM20.3,7.816l1.873-1.873,1.873,1.873L22.171,9.689Z" transform="translate(-3 -2.738)"/>
      </g>
    </g>
  </g>
</svg>
