<svg id="Group_153993" data-name="Group 153993" xmlns="http://www.w3.org/2000/svg" width="53.196" height="54.505" viewBox="0 0 53.196 54.505">
  <ellipse id="Ellipse_17701" data-name="Ellipse 17701" cx="26.598" cy="27.252" rx="26.598" ry="27.252" transform="translate(0 0)" fill="#1cb954"/>
  <path id="Path_1114" data-name="Path 1114" d="M53.1,43.458,49.433,39.7a8.286,8.286,0,0,0,.319-9.378.35.35,0,0,0-.5-.1.369.369,0,0,0-.1.508,7.562,7.562,0,0,1-.934,9.29,7.1,7.1,0,0,1-10.21,0,7.534,7.534,0,0,1,0-10.461,7.094,7.094,0,0,1,10.205,0l.019.019a.349.349,0,0,0,.505,0,.37.37,0,0,0,0-.517l-.019-.019a7.811,7.811,0,0,0-11.22,0c-.1.1-.191.2-.281.3H29.375a.364.364,0,0,0-.357.366v1.621a.357.357,0,1,0,.715,0V30.067H36.65a8.322,8.322,0,0,0-.705,1.23H31.5a.366.366,0,0,0,0,.732H35.65a8.286,8.286,0,0,0-.257.893H31.5a.366.366,0,0,0,0,.732h3.769q-.057.447-.071.893H31.5a.366.366,0,0,0,0,.732H35.2a8.256,8.256,0,0,0,.8,3.09h-.6a.365.365,0,0,0-.357.366V49.574a.364.364,0,0,0,.357.366h2.859a.364.364,0,0,0,.357-.366v-8.1a7.571,7.571,0,0,0,1,.6v7.508a.364.364,0,0,0,.357.366h2.859a.364.364,0,0,0,.357-.366V42.906a7.965,7.965,0,0,0,.834-.054V48.51a.357.357,0,1,0,.715,0V42.735a7.762,7.762,0,0,0,3.178-1.484l3.664,3.754a1.052,1.052,0,0,0,1.515,0A1.109,1.109,0,0,0,53.1,43.458ZM37.9,49.218H35.759V39.113H36.4a8.115,8.115,0,0,0,1.105,1.416c.129.132.262.259.4.381Zm2.43,0V42.394a7.954,7.954,0,0,0,2.144.488v6.341H40.333Zm12.259-4.725a.351.351,0,0,1-.5,0l-3.621-3.71c.086-.083.176-.166.257-.254s.167-.176.248-.264l3.621,3.71A.375.375,0,0,1,52.592,44.493Z" transform="translate(-12.948 -11.895)" fill="#fff"/>
  <path id="Path_1115" data-name="Path 1115" d="M44.383,54.464a.364.364,0,0,0-.357.366v.83H29.732V37.651a.357.357,0,1,0-.715,0V56.026a.364.364,0,0,0,.357.366H44.383a.364.364,0,0,0,.357-.366v-1.2A.361.361,0,0,0,44.383,54.464Z" transform="translate(-12.948 -16.637)" fill="#fff"/>
  <path id="Path_1116" data-name="Path 1116" d="M31.813,53.483v7.908a.364.364,0,0,0,.357.366h2.859a.364.364,0,0,0,.357-.366V53.483a.364.364,0,0,0-.357-.366H32.171A.364.364,0,0,0,31.813,53.483Zm.715.366h2.144v7.176H32.528Z" transform="translate(-14.196 -23.702)" fill="#fff"/>
  <path id="Path_1117" data-name="Path 1117" d="M35.876,44.594a.366.366,0,0,0,0-.732H33.2a.366.366,0,0,0,0,.732Z" transform="translate(-14.657 -19.572)" fill="#fff"/>
  <path id="Path_1118" data-name="Path 1118" d="M49.239,29.3a6.384,6.384,0,0,0-4.6,1.948,6.787,6.787,0,0,0,0,9.421,6.4,6.4,0,0,0,9.2,0,6.787,6.787,0,0,0,0-9.421A6.383,6.383,0,0,0,49.239,29.3Zm4.093,10.857a5.7,5.7,0,0,1-8.185,0,6.044,6.044,0,0,1,0-8.387,5.694,5.694,0,0,1,8.185,0,6.05,6.05,0,0,1,0,8.391Z" transform="translate(-19.072 -13.074)" fill="#fff"/>
</svg>
