<svg xmlns="http://www.w3.org/2000/svg" width="53.196" height="54.505" viewBox="0 0 53.196 54.505">
  <g id="Group_153995" data-name="Group 153995" transform="translate(0)">
    <ellipse id="Ellipse_17703" data-name="Ellipse 17703" cx="26.598" cy="27.252" rx="26.598" ry="27.252" transform="translate(-0.001 0)" fill="#1cb954"/>
    <path id="Path_1127" data-name="Path 1127" d="M30.775,32.475a1.61,1.61,0,0,0-1.592,1.631v4.347h1.059V34.105a.539.539,0,0,1,.532-.545H43.507V32.475Z" transform="translate(-13.182 -14.491)" fill="#fff"/>
    <path id="Path_1128" data-name="Path 1128" d="M42.172,53.683,29.29,40.48a.519.519,0,0,0-.751,0L25.51,43.588a.551.551,0,0,0,0,.769L38.4,57.556a.519.519,0,0,0,.746,0l3.029-3.1A.551.551,0,0,0,42.172,53.683ZM38.765,56.4,26.629,43.971l2.283-2.339L41.048,54.065Z" transform="translate(-11.473 -17.991)" fill="#fff"/>
    <path id="Path_1129" data-name="Path 1129" d="M61.085,61.921H53.127v1.085h5.834v2.716a.539.539,0,0,0,.532.545h1.591a2.174,2.174,0,0,0,0-4.347Zm0,3.261H60.025V63.006h1.059a1.088,1.088,0,0,1,0,2.176Z" transform="translate(-23.866 -27.63)" fill="#fff"/>
    <path id="Path_1130" data-name="Path 1130" d="M65.36,32.475H62.709V33.56H65.36a1.073,1.073,0,0,1,1.059,1.085V50.952h1.064V34.645A2.148,2.148,0,0,0,65.36,32.475Z" transform="translate(-28.142 -14.491)" fill="#fff"/>
    <path id="Path_1131" data-name="Path 1131" d="M41.587,52.389l-1.593,1.633.749.768,1.593-1.633Z" transform="translate(-18.006 -23.377)" fill="#fff"/>
    <path id="Path_1132" data-name="Path 1132" d="M45.423,56.314,43.83,57.947l.749.768,1.593-1.633Z" transform="translate(-19.718 -25.129)" fill="#fff"/>
    <path id="Path_1133" data-name="Path 1133" d="M49.259,60.242l-1.593,1.633.749.768,1.593-1.633Z" transform="translate(-21.429 -26.881)" fill="#fff"/>
    <path id="Path_1134" data-name="Path 1134" d="M57.667,25.854l-.731-.749a1.58,1.58,0,0,0-2.218,0l-8.067,8.266a.551.551,0,0,0,0,.769l2.2,2.252a.519.519,0,0,0,.746,0l8.072-8.266A1.637,1.637,0,0,0,57.667,25.854Zm-.751,1.5-7.689,7.883-1.452-1.488,7.694-7.878a.514.514,0,0,1,.716,0l.731.749A.526.526,0,0,1,56.916,27.358Z" transform="translate(-20.906 -11)" fill="#fff"/>
    <path id="Path_1135" data-name="Path 1135" d="M48.169,42.685l-2.288.785.766-2.349-1.01-.347-1.1,3.384a.5.5,0,0,0-.025.173.539.539,0,0,0,.532.545.582.582,0,0,0,.164-.025l3.3-1.126Z" transform="translate(-20.023 -18.194)" fill="#fff"/>
    <path id="Path_1136" data-name="Path 1136" d="M59.44,28.18l-.749.768,2.2,2.256.749-.768Z" transform="translate(-26.349 -12.574)" fill="#fff"/>
    <path id="Path_1137" data-name="Path 1137" d="M53.424,46.213H45.467V47.3h7.958Z" transform="translate(-20.448 -20.621)" fill="#fff"/>
    <path id="Path_1138" data-name="Path 1138" d="M62.807,46.213H61.748V47.3h1.059Z" transform="translate(-27.713 -20.621)" fill="#fff"/>
    <path id="Path_1139" data-name="Path 1139" d="M66.643,46.213H65.584V47.3h1.059Z" transform="translate(-29.425 -20.621)" fill="#fff"/>
  </g>
</svg>
