<svg id="Group_153997" data-name="Group 153997" xmlns="http://www.w3.org/2000/svg" width="53.196" height="54.505" viewBox="0 0 53.196 54.505">
  <ellipse id="Ellipse_17704" data-name="Ellipse 17704" cx="26.598" cy="27.252" rx="26.598" ry="27.252" transform="translate(0 0)" fill="#1cb954"/>
  <path id="Path_1140" data-name="Path 1140" d="M35.418,32.559h.822v3.37h.822v-3.37h.822v-.843H35.418Z" transform="translate(-16.202 -14.153)" fill="#fff"/>
  <path id="Path_1141" data-name="Path 1141" d="M53.236,32.559h.822v3.37h.822v-3.37H55.7v-.843H53.236Z" transform="translate(-24.153 -14.153)" fill="#fff"/>
  <path id="Path_1142" data-name="Path 1142" d="M41.357,32.138v3.37a.418.418,0,0,0,.411.421h2.056v-.843H42.18v-.842h1.644V33.4H42.18v-.843h1.644v-.843H41.769A.418.418,0,0,0,41.357,32.138Z" transform="translate(-18.853 -14.153)" fill="#fff"/>
  <path id="Path_1143" data-name="Path 1143" d="M47.3,32.981a1.246,1.246,0,0,0,1.233,1.264.421.421,0,0,1,0,.842H47.3v.843H48.53a1.264,1.264,0,0,0,0-2.528.421.421,0,0,1,0-.843h1.233v-.843H48.53A1.246,1.246,0,0,0,47.3,32.981Z" transform="translate(-21.503 -14.153)" fill="#fff"/>
  <path id="Path_1144" data-name="Path 1144" d="M32.86,36.256h14.8a.417.417,0,0,0,.411-.421V29.1a.418.418,0,0,0-.411-.421H32.86a.418.418,0,0,0-.411.421v6.74A.417.417,0,0,0,32.86,36.256Zm.411-6.74H47.25v5.9H33.271Z" transform="translate(-14.878 -12.795)" fill="#fff"/>
  <path id="Path_1145" data-name="Path 1145" d="M32.118,47.858h2.467A.418.418,0,0,0,35,47.437V45.083l1.115-1.137-.586-.6-1.11,1.143h-2.3a.417.417,0,0,0-.411.421v2.527A.417.417,0,0,0,32.118,47.858Zm2.056-.842H33.11l1.064-1.09Zm-.581-1.685-1.064,1.09v-1.09Z" transform="translate(-14.546 -19.342)" fill="#fff"/>
  <path id="Path_1146" data-name="Path 1146" d="M34.585,60.621H32.118a.418.418,0,0,0-.411.421V63.57a.417.417,0,0,0,.411.421h2.467A.418.418,0,0,0,35,63.57V61.042A.418.418,0,0,0,34.585,60.621Zm-.411,2.528H32.529V61.464h1.645Z" transform="translate(-14.546 -27.05)" fill="#fff"/>
  <path id="Path_1147" data-name="Path 1147" d="M35.114,51.713l-.7.721h-2.3a.417.417,0,0,0-.411.421v2.527a.418.418,0,0,0,.411.421h2.467A.417.417,0,0,0,35,55.383V53.029l.7-.716Zm-1.521,1.564-1.064,1.09v-1.09Zm.581,1.685H33.11l1.064-1.09Z" transform="translate(-14.546 -23.075)" fill="#fff"/>
  <path id="Path_1148" data-name="Path 1148" d="M39.131,46.169H51.054v.843H39.131Z" transform="translate(-17.859 -20.602)" fill="#fff"/>
  <path id="Path_1149" data-name="Path 1149" d="M39.131,61.383h5.345v.843H39.131Z" transform="translate(-17.859 -27.39)" fill="#fff"/>
  <path id="Path_1150" data-name="Path 1150" d="M39.131,64.425H51.054v.842H39.131Z" transform="translate(-17.859 -28.748)" fill="#fff"/>
  <path id="Path_1151" data-name="Path 1151" d="M54.108,34.6l-1.644-1.685a.4.4,0,0,0-.581,0l-3.412,3.5V26.052a.417.417,0,0,0-.411-.421H29.147a.417.417,0,0,0-.411.421V51.327a.417.417,0,0,0,.411.421H48.059a.417.417,0,0,0,.411-.421V40.969L54.108,35.2a.437.437,0,0,0,0-.6ZM42.442,44.06l.786.806-1.377.606Zm.442-.737,7.642-7.83,1.064,1.09-7.642,7.83Zm4.764,7.582H29.559V26.473H47.648V37.252l-1.4,1.437H34.492v.843H45.423l-1.644,1.685H34.492v.842h8.464l-.822.842H34.492v.843h7.184l-.987,2.364a.428.428,0,0,0,.216.553.418.418,0,0,0,.319,0L44.1,45.4a.541.541,0,0,0,.134-.09l3.407-3.5v9.094ZM52.17,35.988,51.107,34.9l1.064-1.09,1.064,1.09Z" transform="translate(-13.221 -11.437)" fill="#fff"/>
</svg>
