<svg xmlns="http://www.w3.org/2000/svg" xmlns:xlink="http://www.w3.org/1999/xlink" width="24" height="22.222" viewBox="0 0 24 22.222">
  <defs>
    <clipPath id="clip-path">
      <rect id="Rectangle_3511" data-name="Rectangle 3511" width="24" height="22.222" transform="translate(279 825)"/>
    </clipPath>
  </defs>
  <g id="Group_1724" data-name="Group 1724" transform="translate(-279 -825)" opacity="0.8" clip-path="url(#clip-path)">
    <path id="Path_1061" data-name="Path 1061" d="M303.462,832.253a7.962,7.962,0,0,0-3.085-3.029A8.679,8.679,0,0,1,298.1,827.3l-.108-.141a3.759,3.759,0,0,1-.793-1.418.8.8,0,0,0-.035-.11.827.827,0,0,0-.06-.172.671.671,0,0,0-.081-.124.787.787,0,0,0-.115-.128.99.99,0,0,0-.142-.092.823.823,0,0,0-.142-.067.781.781,0,0,0-.187-.038c-.032,0-.06-.017-.093-.017a.576.576,0,0,0-.057.012h-.06a.656.656,0,0,0-.1.036.716.716,0,0,0-.165.058.7.7,0,0,0-.131.09.765.765,0,0,0-.124.11.876.876,0,0,0-.09.132.86.86,0,0,0-.072.142.7.7,0,0,0-.033.165.409.409,0,0,0-.026.108v15.236a4.972,4.972,0,0,0-2.571-.7c-2.364,0-4.285,1.534-4.285,3.42s1.922,3.419,4.285,3.419,4.284-1.533,4.284-3.419V833.84a6.159,6.159,0,0,1,3.98,4.658,4.516,4.516,0,0,1-.331.467.854.854,0,0,0-.215.617.868.868,0,0,0,.084.323.862.862,0,0,0,.49.434.858.858,0,0,0,.92-.239,6.719,6.719,0,0,0,.627-.879c.02-.027.04-.054.058-.083a9.17,9.17,0,0,0,1.239-4.06A5.65,5.65,0,0,0,303.462,832.253Zm-10.537,13.26c-1.393,0-2.572-.782-2.572-1.709s1.177-1.71,2.572-1.71,2.571.783,2.571,1.71S294.325,845.512,292.925,845.512Zm9.428-10.549a7.7,7.7,0,0,1-.173,1.192,8.258,8.258,0,0,0-4.974-4.133v-3.14a12.274,12.274,0,0,0,2.215,1.759,6.583,6.583,0,0,1,2.5,2.36,4.005,4.005,0,0,1,.432,1.962Z" transform="translate(-1.07 0.001)"/>
    <path id="Path_1062" data-name="Path 1062" d="M290.139,825H279.852a.855.855,0,1,0,0,1.709h10.287a.855.855,0,1,0,0-1.709Z" transform="translate(0.001 0)"/>
    <path id="Path_1063" data-name="Path 1063" d="M290.139,830.77H279.852a.855.855,0,1,0,0,1.709h10.287a.855.855,0,1,0,0-1.709Z" transform="translate(0.001 -0.641)"/>
    <path id="Path_1064" data-name="Path 1064" d="M285,836.538h-5.147a.855.855,0,1,0,0,1.709H285a.855.855,0,1,0,0-1.709Z" transform="translate(0.001 -1.282)"/>
    <path id="Path_1065" data-name="Path 1065" d="M285,842.307h-5.147a.855.855,0,1,0,0,1.709H285a.855.855,0,1,0,0-1.709Z" transform="translate(0.001 -1.923)"/>
  </g>
</svg>
