<svg xmlns="http://www.w3.org/2000/svg" width="53.196" height="54.505" viewBox="0 0 53.196 54.505">
  <g id="Group_153994" data-name="Group 153994" transform="translate(-0.001)">
    <ellipse id="Ellipse_17702" data-name="Ellipse 17702" cx="26.598" cy="27.252" rx="26.598" ry="27.252" transform="translate(0.001 0)" fill="#1cb954"/>
    <path id="Path_1119" data-name="Path 1119" d="M47.649,33.513a.666.666,0,0,0,0,1.331,3.951,3.951,0,0,1,3.9,3.992.65.65,0,1,0,1.3,0A5.264,5.264,0,0,0,47.649,33.513Z" transform="translate(-21.051 -14.954)" fill="#fff"/>
    <path id="Path_1120" data-name="Path 1120" d="M40.22,28.884a7.847,7.847,0,0,0-5.935,6.068,8.115,8.115,0,0,0,1.788,7.035,5.254,5.254,0,0,1,1.281,3.4v1.331a2,2,0,0,0,1.346,1.9,3.227,3.227,0,0,0,6.4,0,2,2,0,0,0,1.346-1.9V45.385a5.336,5.336,0,0,1,1.316-3.442,8.084,8.084,0,0,0,1.926-5.252A7.855,7.855,0,0,0,40.22,28.884Zm1.675,21.2a1.99,1.99,0,0,1-1.836-1.379h3.675A2,2,0,0,1,41.9,50.087Zm3.247-3.371a.657.657,0,0,1-.649.665H39.3a.657.657,0,0,1-.649-.665V46.05h6.494Zm1.641-5.651a6.768,6.768,0,0,0-1.606,3.651H38.614A6.666,6.666,0,0,0,37.043,41.1a6.771,6.771,0,0,1-1.485-5.873,6.481,6.481,0,0,1,12.831,1.464A6.733,6.733,0,0,1,46.783,41.065Z" transform="translate(-15.297 -12.81)" fill="#fff"/>
    <path id="Path_1121" data-name="Path 1121" d="M30.108,43.125h-1.3a.666.666,0,0,0,0,1.331h1.3a.666.666,0,0,0,0-1.331Z" transform="translate(-12.644 -19.243)" fill="#fff"/>
    <path id="Path_1122" data-name="Path 1122" d="M30.53,36.2l-.918-.94a.635.635,0,0,0-.918,0,.677.677,0,0,0,0,.94l.918.94a.634.634,0,0,0,.918,0A.673.673,0,0,0,30.53,36.2Z" transform="translate(-12.798 -15.646)" fill="#fff"/>
    <path id="Path_1123" data-name="Path 1123" d="M30.529,49.679a.634.634,0,0,0-.918,0l-.918.94a.673.673,0,0,0,0,.94.635.635,0,0,0,.918,0l.918-.94A.673.673,0,0,0,30.529,49.679Z" transform="translate(-12.797 -22.08)" fill="#fff"/>
    <path id="Path_1124" data-name="Path 1124" d="M65.443,43.125h-1.3a.666.666,0,0,0,0,1.331h1.3a.666.666,0,0,0,0-1.331Z" transform="translate(-28.411 -19.243)" fill="#fff"/>
    <path id="Path_1125" data-name="Path 1125" d="M65.864,35.261a.635.635,0,0,0-.918,0l-.918.94a.673.673,0,0,0,0,.94.635.635,0,0,0,.918,0l.918-.94A.673.673,0,0,0,65.864,35.261Z" transform="translate(-28.564 -15.646)" fill="#fff"/>
    <path id="Path_1126" data-name="Path 1126" d="M65.865,50.619l-.918-.94a.635.635,0,0,0-.918,0,.677.677,0,0,0,0,.94l.918.94a.635.635,0,0,0,.918,0A.677.677,0,0,0,65.865,50.619Z" transform="translate(-28.565 -22.08)" fill="#fff"/>
  </g>
</svg>
