<svg xmlns="http://www.w3.org/2000/svg" width="24" height="23.867" viewBox="0 0 24 23.867">
  <g id="Radio" opacity="0.8">
    <path id="Path_935" data-name="Path 935" d="M68.211,107H67.1v1.556A8.742,8.742,0,0,1,75.544,117H77.1v-1.111A10.571,10.571,0,0,0,74.211,110,11.037,11.037,0,0,0,68.211,107Z" transform="translate(-53.1 -107)"/>
    <path id="Path_936" data-name="Path 936" d="M59.556,116H58v1.222a10.938,10.938,0,0,0,2.889,5.889A9.9,9.9,0,0,0,66.778,126H68v-1.556a7.992,7.992,0,0,1-5.889-2.556A8.935,8.935,0,0,1,59.556,116Z" transform="translate(-58 -102.133)"/>
    <path id="Path_937" data-name="Path 937" d="M67.1,110.5v1.667a4.174,4.174,0,0,1,4.222,4.222h1.667a6.071,6.071,0,0,0-1.778-4.222A5.987,5.987,0,0,0,67.1,110.5Z" transform="translate(-54.224 -105.545)"/>
    <path id="Path_938" data-name="Path 938" d="M67.489,122.089v-1.667a4.174,4.174,0,0,1-4.222-4.222H61.6a6.071,6.071,0,0,0,1.778,4.222A5.987,5.987,0,0,0,67.489,122.089Z" transform="translate(-56.506 -103.176)"/>
    <circle id="Ellipse_17676" data-name="Ellipse 17676" cx="2" cy="2" r="2" transform="translate(9.931 9.934)"/>
  </g>
</svg>
