<svg xmlns="http://www.w3.org/2000/svg" width="44" height="44" viewBox="0 0 44 44">
  <g id="soundbox_logo" data-name="soundbox logo" transform="translate(-8339 -15046.626)">
    <rect id="Rectangle_3573" data-name="Rectangle 3573" width="44" height="44" rx="8" transform="translate(8339 15046.626)" fill="#180f43"/>
    <g id="soundbox_logo-2" data-name="soundbox logo" transform="translate(8347.576 15057.037)">
      <rect id="Rectangle_3545" data-name="Rectangle 3545" width="0.851" height="18.505" transform="translate(11.926 5.047)" fill="#5eff98"/>
      <rect id="Rectangle_3546" data-name="Rectangle 3546" width="0.851" height="12.125" transform="translate(10.151 8.197)" fill="#5eff98"/>
      <rect id="Rectangle_3547" data-name="Rectangle 3547" width="0.851" height="10.181" transform="translate(15.473 10.141)" fill="#5eff98"/>
      <rect id="Rectangle_3548" data-name="Rectangle 3548" width="0.851" height="5.991" transform="translate(13.698 11.264)" fill="#5eff98"/>
      <rect id="Rectangle_3549" data-name="Rectangle 3549" width="0.851" height="4.764" transform="translate(8.379 11.878)" fill="#5eff98"/>
      <rect id="Rectangle_3550" data-name="Rectangle 3550" width="0.851" height="4.764" transform="translate(17.245 11.878)" fill="#5eff98"/>
      <rect id="Rectangle_3551" data-name="Rectangle 3551" width="0.851" height="2.815" transform="translate(6.604 12.852)" fill="#5eff98"/>
      <rect id="Rectangle_3552" data-name="Rectangle 3552" width="0.851" height="2.815" transform="translate(19.02 12.852)" fill="#5eff98"/>
      <rect id="Rectangle_3553" data-name="Rectangle 3553" width="0.851" height="1.005" transform="translate(4.832 13.971)" fill="#5eff98"/>
      <rect id="Rectangle_3554" data-name="Rectangle 3554" width="0.851" height="1.005" transform="translate(20.794 13.971)" fill="#5eff98"/>
      <path id="Path_1165" data-name="Path 1165" d="M95.749,309.491h-.025a10.855,10.855,0,0,1,.184,1.184h-.414a11.143,11.143,0,0,0-11.052-10h-.608a11.143,11.143,0,0,0-11.009,9.677v.109c0,.076-.02.149-.028.225h-.543a11.2,11.2,0,0,1,.182-1.181c-1.01.048-1.535.894-1.535,1.926v5.589a1.456,1.456,0,0,0,1.626,1.626h.05c1.06,0,1.929-.565,1.929-1.626v-5.021a9.633,9.633,0,1,1,19.266,0v5.016c0,1.06.868,1.626,1.929,1.626h.05a1.456,1.456,0,0,0,1.626-1.626v-5.589C97.375,310.346,96.809,309.491,95.749,309.491Z" transform="translate(-70.9 -300.67)" fill="#5eff98"/>
    </g>
  </g>
</svg>
